# xmcd
#
# Track frame offsets: 
#        150
#        13932
#        27535
#        39330
#        50427
#        63060
#        75727
#        87215
#        98927
#        110222
#        122037
#        133580
#        142717
#        153235
#
# Disc length: 2222 seconds
#
# Revision: 0
# Processed by: cddbd v1.5.1PL2 Copyright (c) Steve Scherf et al.
# Submitted via: ExactAudioCopy v0.95b3
#
DISCID=b208ac0e
DTITLE=Smokey Hogg - Sittin' in with
DYEAR=1991
DGENRE=Blues
TTITLE0=I'm in love with you
TTITLE1=Saved all my money
TTITLE2=I'm leavin'
TTITLE3=You won't stay home
TTITLE4=Why should I worry
TTITLE5=i'm so loney
TTITLE6=Let's go back to the country
TTITLE7=That's my baby
TTITLE8=Hello baby
TTITLE9=I love you baby, part 2
TTITLE10=What you gonna do?
TTITLE11=What in the world am I gonna do
TTITLE12=I love you baby, part 1
TTITLE13=Shake a leg
EXTD=
EXTT0=
EXTT1=
EXTT2=
EXTT3=
EXTT4=
EXTT5=
EXTT6=
EXTT7=
EXTT8=
EXTT9=
EXTT10=
EXTT11=
EXTT12=
EXTT13=
PLAYORDER=
